#!OML:ASF X:\für Bonn\!DataBase\2005_08_11_Bastian_Final\c3d\Bastian.ASF
:FULLY-SPECIFIED
:DEGREES
113
root -0.235624 17.3668 23.1788 -911.784 -21.3243 -897.484
lowerback 13.9976 -1.45353 0.775582
upperback 9.27604 -3.09863 1.37383
thorax 1.99017 -2.0944 1.34684
lowerneck -19.8264 -9.05223 -6.68911
upperneck 10.9266 -11.1005 4.36876
head 7.16327 -5.23535 1.13214
rclavicle 5.67779e-014 -2.0276e-014
rhumerus -33.5183 4.23717 -87.3223
rradius 29.3407
rwrist -3.46152
rhand -10.2088 4.69747
rfingers 7.12502
rthumb 15.7826 -24.6791
lclavicle 5.67779e-014 -2.0276e-014
lhumerus -202.128 -190.113 262.779
lradius 17.0169
lwrist 9.96008
lhand -10.2381 -9.99315
lfingers 7.12502
lthumb 15.7544 19.3857
rfemur 3.06395 -3.62582 25.5795
rtibia 30.247
rfoot -17.2076 -23.368
rtoes 2.34949
lfemur -2.76694 2.95121 -16.4988
ltibia 30.2448
lfoot -9.82946 -9.1383
ltoes -18.1657
114
root -0.247716 17.362 23.1631 -911.892 -21.5685 -897.404
lowerback 14.0678 -1.449 0.778902
upperback 9.44235 -3.1272 1.35737
thorax 2.13077 -2.12253 1.32828
lowerneck -19.8204 -9.08716 -6.65441
upperneck 10.8281 -11.1296 4.21504
head 7.11937 -5.2634 1.07623
rclavicle 5.93372e-014 -2.55438e-014
rhumerus -33.3592 4.42744 -87.3454
rradius 29.4454
rwrist -3.47984
rhand -10.2239 4.76721
rfingers 7.12502
rthumb 15.768 -24.6105
lclavicle 5.93372e-014 -2.55438e-014
lhumerus -202.084 -190.425 262.631
lradius 17.1077
lwrist 9.86449
lhand -10.1645 -10.0768
lfingers 7.12502
lthumb 15.8252 19.2964
rfemur 3.18707 -3.93902 25.5472
rtibia 30.2659
rfoot -17.1226 -23.3602
rtoes 2.02359
lfemur -2.65301 2.97692 -16.5288
ltibia 30.0237
lfoot -9.68978 -9.25506
ltoes -17.2303
115
root -0.26028 17.3557 23.1474 -912.003 -21.8341 -897.348
lowerback 14.1308 -1.4483 0.75631
upperback 9.63119 -3.16796 1.31966
thorax 2.29974 -2.15893 1.30213
lowerneck -19.8337 -9.10414 -6.57701
upperneck 10.7293 -11.1478 4.07777
head 7.07661 -5.28284 1.02011
rclavicle 4.84041e-014 -2.38542e-014
rhumerus -33.1612 4.56265 -87.3693
rradius 29.5365
rwrist -3.42509
rhand -10.2171 4.80347
rfingers 7.12502
rthumb 15.7746 -24.5737
lclavicle 4.84041e-014 -2.38542e-014
lhumerus -202.002 -190.572 262.508
lradius 17.2078
lwrist 9.93106
lhand -10.1256 -10.146
lfingers 7.12502
lthumb 15.8627 19.2243
rfemur 3.31756 -4.20955 25.4939
rtibia 30.3153
rfoot -17.0941 -23.376
rtoes 1.94927
lfemur -2.51014 2.99722 -16.5798
ltibia 29.8373
lfoot -9.54366 -9.35796
ltoes -15.8424
116
root -0.271876 17.3474 23.1303 -912.126 -22.0945 -897.293
lowerback 14.2003 -1.42778 0.692997
upperback 9.82131 -3.18794 1.29626
thorax 2.4693 -2.18787 1.31136
lowerneck -19.8216 -9.13459 -6.5128
upperneck 10.6038 -11.1847 3.95701
head 7.02365 -5.31112 0.970408
rclavicle -1.36913e-014 2.11209e-014
rhumerus -32.9901 4.76977 -87.3929
rradius 29.6283
rwrist -3.43924
rhand -10.2495 4.86867
rfingers 7.12502
rthumb 15.7434 -24.511
lclavicle -1.36913e-014 2.11209e-014
lhumerus -201.928 -190.688 262.415
lradius 17.3003
lwrist 9.94141
lhand -10.1127 -10.1817
lfingers 7.12502
lthumb 15.8751 19.1876
rfemur 3.44968 -4.47734 25.4492
rtibia 30.3908
rfoot -17.0853 -23.4004
rtoes 1.72527
lfemur -2.33357 2.95584 -16.6315
ltibia 29.6782
lfoot -9.4182 -9.37804
ltoes -14.1674
117
root -0.283086 17.3395 23.1143 -912.234 -22.3786 -897.255
lowerback 14.2557 -1.41609 0.593572
upperback 10.0252 -3.22687 1.27559
thorax 2.6638 -2.22958 1.34434
lowerneck -19.7975 -9.15032 -6.41897
upperneck 10.435 -11.2041 3.79944
head 6.94965 -5.33409 0.908548
rclavicle 3.58185e-014 -2.76808e-014
rhumerus -32.7809 4.9557 -87.3887
rradius 29.7529
rwrist -3.41639
rhand -10.2362 4.88173
rfingers 7.12502
rthumb 15.7562 -24.4969
lclavicle 3.58185e-014 -2.76808e-014
lhumerus -201.817 -191.091 262.293
lradius 17.3224
lwrist 9.69782
lhand -10.089 -10.2807
lfingers 7.12502
lthumb 15.898 19.0868
rfemur 3.54891 -4.79058 25.3658
rtibia 30.5027
rfoot -17.1285 -23.3887
rtoes 1.73149
lfemur -2.15904 2.88962 -16.7033
ltibia 29.5377
lfoot -9.31975 -9.36036
ltoes -12.4998
118
root -0.294887 17.3306 23.1 -912.34 -22.6444 -897.249
lowerback 14.3445 -1.39754 0.468989
upperback 10.2266 -3.25968 1.23586
thorax 2.8384 -2.26962 1.3724
lowerneck -19.8012 -9.15853 -6.3073
upperneck 10.3111 -11.2196 3.65103
head 6.89431 -5.35264 0.845595
rclavicle 2.95382e-015 -1.20513e-015
rhumerus -32.5724 5.24476 -87.424
rradius 29.8744
rwrist -3.4605
rhand -10.2475 4.92193
rfingers 7.12502
rthumb 15.7453 -24.4576
lclavicle 2.95382e-015 -1.20513e-015
lhumerus -201.731 -191.338 262.232
lradius 17.3922
lwrist 9.58424
lhand -10.1512 -10.332
lfingers 7.12502
lthumb 15.838 19.0402
rfemur 3.62819 -5.15477 25.2174
rtibia 30.6736
rfoot -17.2195 -23.2554
rtoes 1.78387
lfemur -1.97728 2.841 -16.8086
ltibia 29.4001
lfoot -9.14379 -9.3119
ltoes -10.7402
119
root -0.305854 17.3218 23.0868 -912.454 -22.8872 -897.246
lowerback 14.4642 -1.3629 0.341593
upperback 10.4255 -3.27212 1.18831
thorax 2.99363 -2.30015 1.39311
lowerneck -19.7362 -9.17239 -6.21167
upperneck 10.1333 -11.2485 3.5461
head 6.81469 -5.37621 0.801169
rclavicle 3.95985e-014 -1.82261e-014
rhumerus -32.3431 5.43974 -87.4418
rradius 29.9584
rwrist -3.46866
rhand -10.2535 4.93102
rfingers 7.12502
rthumb 15.7395 -24.449
lclavicle 3.95985e-014 -1.82261e-014
lhumerus -201.636 -191.63 262.148
lradius 17.4081
lwrist 9.42185
lhand -10.193 -10.4164
lfingers 7.12502
lthumb 15.7978 18.959
rfemur 3.66944 -5.58451 25.0445
rtibia 30.9217
rfoot -17.2661 -23.0911
rtoes 1.43817
lfemur -1.76063 2.7783 -16.9075
ltibia 29.2597
lfoot -9.05966 -9.24265
ltoes -9.42511
120
root -0.315732 17.3121 23.0777 -912.545 -23.1389 -897.31
lowerback 14.6426 -1.32071 0.1156
upperback 10.6216 -3.28754 1.14251
thorax 3.12028 -2.33911 1.47412
lowerneck -19.7219 -9.17207 -6.08325
upperneck 9.97617 -11.2574 3.39099
head 6.74404 -5.39253 0.736329
rclavicle 7.73397e-014 -4.51241e-014
rhumerus -32.1156 5.7557 -87.4564
rradius 30.1207
rwrist -3.51481
rhand -10.2014 4.86419
rfingers 7.12502
rthumb 15.7897 -24.5118
lclavicle 7.73397e-014 -4.51241e-014
lhumerus -201.545 -191.846 262.115
lradius 17.4893
lwrist 9.3302
lhand -10.2263 -10.4052
lfingers 7.12502
lthumb 15.7657 18.9727
rfemur 3.65335 -6.06573 24.7734
rtibia 31.26
rfoot -17.3662 -22.8202
rtoes 1.35569
lfemur -1.52179 2.64271 -17.0811
ltibia 29.1169
lfoot -8.95106 -9.11375
ltoes -7.78768
121
root -0.326654 17.3033 23.0713 -912.636 -23.352 -897.36
lowerback 14.8278 -1.27186 -0.0511896
upperback 10.8286 -3.29164 1.08278
thorax 3.25192 -2.37068 1.50588
lowerneck -19.6925 -9.18302 -6.00913
upperneck 9.78318 -11.2785 3.30425
head 6.66725 -5.4116 0.701128
rclavicle 1.96051e-014 -1.3418e-015
rhumerus -31.8341 6.01063 -87.4506
rradius 30.2788
rwrist -3.5233
rhand -10.1384 4.77511
rfingers 7.12502
rthumb 15.8504 -24.5961
lclavicle 1.96051e-014 -1.3418e-015
lhumerus -201.406 -191.946 262.103
lradius 17.5493
lwrist 9.33986
lhand -10.3106 -10.3935
lfingers 7.12502
lthumb 15.6846 18.9908
rfemur 3.57531 -6.62061 24.4824
rtibia 31.7101
rfoot -17.4729 -22.4366
rtoes 1.19282
lfemur -1.27659 2.51641 -17.2391
ltibia 28.9649
lfoot -8.90228 -8.98742
ltoes -7.06284
122
root -0.335607 17.2943 23.0676 -912.738 -23.5664 -897.428
lowerback 15.0885 -1.21188 -0.249533
upperback 11.018 -3.28443 1.01989
thorax 3.3263 -2.39852 1.5553
lowerneck -19.6299 -9.19209 -5.94322
upperneck 9.6019 -11.2971 3.21531
head 6.58936 -5.43023 0.66795
rclavicle -4.34593e-014 2.03754e-014
rhumerus -31.5671 6.33518 -87.4677
rradius 30.4384
rwrist -3.59438
rhand -10.1151 4.72778
rfingers 7.12502
rthumb 15.8728 -24.6417
lclavicle -4.34593e-014 2.03754e-014
lhumerus -201.271 -191.922 262.118
lradius 17.6307
lwrist 9.40134
lhand -10.3942 -10.2864
lfingers 7.12502
lthumb 15.604 19.1042
rfemur 3.44656 -7.20585 24.1571
rtibia 32.2693
rfoot -17.6053 -22.0412
rtoes 0.888297
lfemur -1.01467 2.34653 -17.4188
ltibia 28.8198
lfoot -8.87421 -8.82582
ltoes -6.73276
123
root -0.344244 17.2853 23.0679 -912.823 -23.7917 -897.552
lowerback 15.4146 -1.15943 -0.50677
upperback 11.2032 -3.29769 0.943905
thorax 3.36527 -2.44111 1.6298
lowerneck -19.5447 -9.19859 -5.92411
upperneck 9.37905 -11.3085 3.17606
head 6.49996 -5.44387 0.660203
rclavicle 4.8901e-014 -2.19657e-014
rhumerus -31.2706 6.72661 -87.4753
rradius 30.6109
rwrist -3.68382
rhand -10.0906 4.63656
rfingers 7.12502
rthumb 15.8964 -24.731
lclavicle 4.8901e-014 -2.19657e-014
lhumerus -201.144 -192.026 262.096
lradius 17.7057
lwrist 9.44276
lhand -10.4757 -10.2534
lfingers 7.12502
lthumb 15.5255 19.1433
rfemur 3.26339 -7.83164 23.7508
rtibia 32.9392
rfoot -17.7195 -21.6008
rtoes 0.4347
lfemur -0.767614 2.13624 -17.6661
ltibia 28.6789
lfoot -8.82537 -8.65713
ltoes -6.45585
124
root -0.352031 17.2766 23.0707 -912.934 -23.9945 -897.623
lowerback 15.7746 -1.09219 -0.691779
upperback 11.3935 -3.28857 0.873867
thorax 3.38914 -2.47048 1.66892
lowerneck -19.4712 -9.22315 -5.94494
upperneck 9.15649 -11.3415 3.19155
head 6.41927 -5.46459 0.672371
rclavicle 3.8117e-014 -1.98785e-014
rhumerus -30.9777 7.11264 -87.4874
rradius 30.8064
rwrist -3.81964
rhand -10.0834 4.6029
rfingers 7.12502
rthumb 15.9034 -24.7641
lclavicle 3.8117e-014 -1.98785e-014
lhumerus -200.957 -191.974 262.119
lradius 17.7644
lwrist 9.50381
lhand -10.5378 -10.0831
lfingers 7.12502
lthumb 15.4658 19.3182
rfemur 3.02076 -8.47904 23.386
rtibia 33.7025
rfoot -17.8019 -21.1693
rtoes -0.168325
lfemur -0.547849 1.90872 -17.8673
ltibia 28.5664
lfoot -8.79474 -8.4738
ltoes -6.51146
125
root -0.358015 17.2668 23.0768 -913.043 -24.1977 -897.772
lowerback 16.1999 -1.01651 -0.946967
upperback 11.6052 -3.28761 0.771324
thorax 3.40531 -2.51117 1.71637
lowerneck -19.4775 -9.2393 -5.93116
upperneck 8.96475 -11.3666 3.19273
head 6.35806 -5.48038 0.671997
rclavicle 2.5345e-015 9.93923e-016
rhumerus -30.5933 7.48532 -87.5224
rradius 30.9574
rwrist -3.92216
rhand -10.1432 4.54837
rfingers 7.12502
rthumb 15.8458 -24.8232
lclavicle 2.5345e-015 9.93923e-016
lhumerus -200.748 -191.858 262.131
lradius 17.8455
lwrist 9.63186
lhand -10.6397 -9.98418
lfingers 7.12502
lthumb 15.3676 19.4247
rfemur 2.75339 -9.05782 22.953
rtibia 34.5751
rfoot -17.9161 -20.7534
rtoes -0.76417
lfemur -0.338953 1.6824 -18.151
ltibia 28.486
lfoot -8.78212 -8.27662
ltoes -6.83494
